#!OML:ASF E:\Style6\Style6.ASF
:FULLY-SPECIFIED
:DEGREES
3716
root 0.508742 18.3039 1.05758 28.6603 2.44276 -1.37271
lowerback 7.75521 -0.185968 4.48235
upperback 0.513729 0.266971 3.06088
thorax -3.81599 0.080847 0.626704
lowerneck 1.87733 -0.487365 2.53178
upperneck -10.9485 -1.5123 -9.64428
head -3.64155 -0.423693 -3.30335
rclavicle -6.75868e-015 1.27222e-014
rhumerus -50.6987 -28.8298 -46.1045
rradius 80.7283
rwrist 149.018
rhand -25.8342 12.9457
rfingers 7.12502
rthumb 0.70584 -17.0329
lclavicle -6.75868e-015 1.27222e-014
lhumerus -47.5891 18.3642 66.4311
lradius 80.4477
lwrist 35.549
lhand -25.7763 39.5151
lfingers 7.12502
lthumb 0.761805 69.4935
rfemur -30.2678 20.2289 9.74747
rtibia 7.37877
rfoot -14.8757 -28.1173
rtoes 28.835
lfemur -35.1165 -34.9629 1.50487
ltibia 12.7142
lfoot -13.344 36.0852
ltoes 14.4122
3717
root 0.509608 18.3026 1.05813 28.5824 2.44114 -1.45506
lowerback 7.55582 -0.179989 4.4903
upperback 0.476805 0.264407 3.0806
thorax -3.74273 0.0803472 0.642549
lowerneck 1.89252 -0.486687 2.53997
upperneck -10.8201 -1.49311 -9.57047
head -3.60416 -0.420717 -3.28151
rclavicle -6.36111e-015 7.95139e-016
rhumerus -50.8153 -28.8232 -45.9822
rradius 80.6394
rwrist 149.171
rhand -25.9967 13.1138
rfingers 7.12502
rthumb 0.548884 -16.8652
lclavicle -6.36111e-015 7.95139e-016
lhumerus -47.6828 18.4389 66.2197
lradius 80.3257
lwrist 35.4677
lhand -25.5885 39.322
lfingers 7.12502
lthumb 0.943221 69.2996
rfemur -30.1112 20.2678 9.85904
rtibia 7.24988
rfoot -14.9338 -28.1526
rtoes 28.2621
lfemur -35.0565 -34.8664 1.47077
ltibia 12.8397
lfoot -13.3197 36.0087
ltoes 14.0688
3718
root 0.512934 18.3002 1.05933 28.4894 2.45496 -1.5091
lowerback 7.40399 -0.183685 4.52931
upperback 0.411067 0.256275 3.09662
thorax -3.7261 0.0754622 0.638147
lowerneck 1.96809 -0.492397 2.54007
upperneck -10.7328 -1.48997 -9.53147
head -3.59041 -0.421204 -3.26878
rclavicle 7.95139e-016 -1.35174e-014
rhumerus -50.9937 -28.7582 -45.8015
rradius 80.5715
rwrist 149.253
rhand -26.113 13.2395
rfingers 7.12502
rthumb 0.436652 -16.7398
lclavicle 7.95139e-016 -1.35174e-014
lhumerus -47.8437 18.4981 66.0402
lradius 80.2387
lwrist 35.2815
lhand -25.3363 39.2116
lfingers 7.12502
lthumb 1.18681 69.188
rfemur -29.9409 20.2731 9.94444
rtibia 7.1525
rfoot -15.4831 -27.9683
rtoes 28.8505
lfemur -34.9484 -34.785 1.37379
ltibia 12.9417
lfoot -13.3893 35.9136
ltoes 14.1287
3719
root 0.515466 18.2999 1.06314 28.4114 2.41511 -1.49128
lowerback 7.18965 -0.175114 4.47296
upperback 0.385007 0.249418 3.09844
thorax -3.63324 0.0741513 0.671625
lowerneck 2.033 -0.50705 2.5682
upperneck -10.7197 -1.51167 -9.57386
head -3.59909 -0.429929 -3.28556
rclavicle 3.18055e-015 1.35174e-014
rhumerus -51.0969 -28.7378 -45.6237
rradius 80.4721
rwrist 149.354
rhand -26.2434 13.2649
rfingers 7.12502
rthumb 0.310667 -16.7146
lclavicle 3.18055e-015 1.35174e-014
lhumerus -47.9109 18.5762 65.92
lradius 80.1085
lwrist 35.1409
lhand -25.2143 39.1404
lfingers 7.12502
lthumb 1.30455 69.1162
rfemur -29.8221 20.2845 9.93284
rtibia 7.10893
rfoot -15.5895 -27.8795
rtoes 29.0372
lfemur -34.8103 -34.7323 1.19133
ltibia 13.0082
lfoot -13.4197 35.8333
ltoes 14.0877
3720
root 0.517519 18.3004 1.06801 28.3027 2.38932 -1.45204
lowerback 6.96292 -0.181199 4.39358
upperback 0.389508 0.219162 3.10193
thorax -3.50215 0.062399 0.721747
lowerneck 2.06916 -0.522793 2.51952
upperneck -10.6737 -1.52855 -9.53592
head -3.59217 -0.43837 -3.26464
rclavicle -4.77083e-015 -9.54166e-015
rhumerus -51.1575 -28.6807 -45.5138
rradius 80.4112
rwrist 149.442
rhand -26.3676 13.2183
rfingers 7.12502
rthumb 0.190727 -16.7614
lclavicle -4.77083e-015 -9.54166e-015
lhumerus -47.926 18.6402 65.827
lradius 79.9603
lwrist 35.2016
lhand -25.1925 39.0346
lfingers 7.12502
lthumb 1.32565 69.0102
rfemur -29.751 20.3004 9.95034
rtibia 7.24888
rfoot -15.2692 -28.0043
rtoes 27.8485
lfemur -34.5819 -34.6919 0.970513
ltibia 12.9657
lfoot -13.4359 35.7599
ltoes 14.1368
3721
root 0.518439 18.3019 1.07498 28.0897 2.34406 -1.42334
lowerback 6.84253 -0.181828 4.28912
upperback 0.415235 0.201073 3.1145
thorax -3.40853 0.0566578 0.794261
lowerneck 2.02105 -0.521457 2.50164
upperneck -10.5552 -1.51911 -9.54202
head -3.5479 -0.437019 -3.26296
rclavicle 1.07344e-014 3.18055e-015
rhumerus -51.262 -28.5734 -45.402
rradius 80.4321
rwrist 149.495
rhand -26.4405 13.2262
rfingers 7.12502
rthumb 0.120337 -16.7535
lclavicle 1.07344e-014 3.18055e-015
lhumerus -47.9535 18.6697 65.7685
lradius 79.8326
lwrist 35.2651
lhand -25.2537 38.8011
lfingers 7.12502
lthumb 1.26658 68.7771
rfemur -29.5744 20.3642 10.0232
rtibia 7.44299
rfoot -15.0245 -28.1855
rtoes 26.9627
lfemur -34.2236 -34.7907 0.751403
ltibia 12.8841
lfoot -13.6902 35.7375
ltoes 14.6063
3722
root 0.518094 18.3038 1.08114 27.8722 2.36688 -1.3739
lowerback 6.77686 -0.196189 4.20882
upperback 0.393444 0.172453 3.11075
thorax -3.39496 0.0437014 0.837878
lowerneck 2.03739 -0.523737 2.54161
upperneck -10.4516 -1.5124 -9.54872
head -3.51941 -0.437176 -3.27107
rclavicle -1.59028e-015 3.57812e-014
rhumerus -51.4437 -28.5323 -45.2396
rradius 80.3955
rwrist 149.675
rhand -26.5358 13.2247
rfingers 7.12502
rthumb 0.0282982 -16.7551
lclavicle -1.59028e-015 3.57812e-014
lhumerus -48.0576 18.6195 65.6517
lradius 79.7664
lwrist 35.2929
lhand -25.3973 38.7083
lfingers 7.12502
lthumb 1.12785 68.6851
rfemur -29.34 20.3662 10.1275
rtibia 7.59717
rfoot -15.0208 -28.2393
rtoes 26.8372
lfemur -33.8809 -34.8554 0.510038
ltibia 12.8189
lfoot -13.4267 35.7221
ltoes 13.932
